<?xml version="1.0" standalone="no"?>
<!DOCTYPE svg PUBLIC "-//W3C//DTD SVG 20010904//EN"
 "http://www.w3.org/TR/2001/REC-SVG-20010904/DTD/svg10.dtd">
<svg version="1.0" xmlns="http://www.w3.org/2000/svg"
 width="50.000000pt" height="50.000000pt" viewBox="0 0 50.000000 50.000000"
 preserveAspectRatio="xMidYMid meet">

<g transform="translate(0.000000,50.000000) scale(0.100000,-0.100000)"
fill="#000000" stroke="none">
<path d="M148 459 c-82 -43 -101 -153 -39 -229 28 -35 31 -46 31 -105 0 -58 2
-67 23 -75 12 -6 30 -16 40 -22 13 -10 21 -10 35 0 9 6 27 16 39 21 19 9 22
19 25 86 3 74 -3 102 -16 69 -3 -9 -6 -29 -6 -45 0 -29 0 -29 -60 -29 l-60 0
0 34 c0 22 -10 46 -30 71 -36 45 -44 73 -36 119 13 66 80 115 142 103 16 -3
24 0 24 9 0 21 -68 17 -112 -7z m132 -369 c0 -18 -7 -20 -60 -20 -53 0 -60 2
-60 20 0 18 7 20 60 20 53 0 60 -2 60 -20z"/>
<path d="M297 463 c-13 -3 -15 -11 -11 -29 6 -23 4 -24 -18 -19 -20 5 -26 2
-31 -16 -4 -15 0 -27 11 -35 16 -12 16 -14 -1 -26 -24 -18 -12 -48 19 -48 21
0 23 -4 18 -24 -4 -18 -1 -25 17 -29 15 -4 27 0 35 11 12 16 14 16 26 -1 18
-25 48 -12 48 20 0 20 4 24 20 20 30 -8 48 30 23 49 -17 14 -17 14 0 28 26 20
7 57 -24 49 -19 -5 -21 -3 -16 16 8 31 -29 50 -49 24 -13 -17 -15 -17 -25 0
-10 17 -12 18 -42 10z m53 -43 c10 0 22 6 26 12 6 9 10 5 14 -12 4 -16 14 -26
28 -28 18 -3 20 -6 9 -23 -9 -15 -9 -23 0 -38 11 -17 9 -20 -10 -23 -15 -2
-23 -12 -27 -33 -4 -24 -7 -26 -12 -12 -8 20 -43 23 -54 5 -6 -9 -10 -5 -14
12 -4 18 -14 26 -35 30 -24 4 -26 7 -12 12 20 8 23 43 5 54 -9 6 -5 10 12 14
18 4 26 13 28 35 3 25 5 27 13 12 6 -9 19 -17 29 -17z"/>
<path d="M320 375 c-15 -18 -10 -45 13 -59 34 -22 73 27 47 59 -16 19 -44 19
-60 0z m46 -16 c10 -17 -13 -36 -27 -22 -12 12 -4 33 11 33 5 0 12 -5 16 -11z"/>
<path d="M110 316 c0 -14 11 -38 25 -53 27 -31 35 -13 10 21 -8 11 -15 28 -15
38 0 10 -4 18 -10 18 -5 0 -10 -11 -10 -24z"/>
<path d="M176 203 c8 -33 12 -39 20 -30 9 9 -5 57 -16 57 -6 0 -8 -11 -4 -27z"/>
</g>
</svg>
