<?xml version="1.0" standalone="no"?>
<!DOCTYPE svg PUBLIC "-//W3C//DTD SVG 20010904//EN"
 "http://www.w3.org/TR/2001/REC-SVG-20010904/DTD/svg10.dtd">
<svg version="1.0" xmlns="http://www.w3.org/2000/svg"
 width="742.000000pt" height="742.000000pt" viewBox="0 0 742.000000 742.000000"
 preserveAspectRatio="xMidYMid meet">

<g transform="translate(0.000000,742.000000) scale(0.100000,-0.100000)"
fill="#000000" stroke="none">
<path d="M3380 6835 c-730 -82 -1378 -392 -1891 -904 -782 -783 -1092 -1905
-823 -2986 172 -694 600 -1331 1184 -1762 849 -627 1969 -782 2960 -411 308
115 593 277 861 489 129 101 390 362 491 489 435 550 663 1176 685 1880 37
1183 -612 2295 -1668 2859 -262 140 -625 264 -922 315 -258 45 -633 58 -877
31z m1870 -1251 c52 -15 160 -71 160 -84 0 -4 -103 -102 -230 -218 -126 -117
-230 -217 -230 -222 0 -6 79 -93 176 -196 112 -117 173 -189 167 -195 -5 -5
-44 -17 -87 -26 -240 -52 -487 99 -561 344 -19 61 -19 204 -1 264 41 135 131
241 256 302 117 58 220 67 350 31z m244 -167 c165 -201 127 -512 -82 -679 -26
-21 -52 -38 -57 -38 -12 0 -340 346 -340 359 0 10 423 401 434 401 6 0 26 -19
45 -43z m-872 -598 c29 -6 57 -15 62 -20 9 -8 -1241 -1282 -1254 -1277 -4 2
-72 65 -150 140 -132 129 -141 139 -127 158 94 134 457 512 637 663 131 111
353 259 428 288 134 51 298 70 404 48z m128 -101 c27 -59 27 -187 1 -243 -41
-89 -140 -198 -612 -677 l-492 -500 -90 90 -90 90 28 33 c32 39 1227 1249
1232 1249 2 0 13 -19 23 -42z m-5 -410 c-100 -301 -369 -669 -741 -1011 -76
-71 -151 -137 -165 -147 l-26 -19 -66 67 -66 67 156 160 c87 88 308 313 493
500 185 187 358 370 385 407 27 37 51 66 53 63 2 -2 -8 -41 -23 -87z m-1497
-681 l133 -133 -270 -58 c-148 -32 -277 -56 -286 -52 -9 3 -15 13 -13 21 3 17
286 355 297 355 3 0 66 -60 139 -133z m344 -348 c-11 -11 -321 -61 -332 -54
-23 14 -5 43 82 132 l92 93 83 -82 c45 -45 79 -85 75 -89z m104 -100 l62 -62
-231 -200 c-128 -110 -295 -249 -372 -310 -162 -127 -423 -303 -542 -365 -45
-23 -84 -46 -87 -51 -3 -4 13 -84 35 -177 42 -178 44 -207 18 -212 -10 -2 -91
70 -202 179 l-187 181 19 25 c22 27 527 548 776 800 l160 163 240 44 c132 24
242 44 245 45 2 0 32 -27 66 -60z m-1368 -1212 l164 -164 -69 -6 c-37 -4 -177
-7 -309 -7 -204 0 -244 2 -254 15 -7 9 -10 19 -7 23 24 27 303 302 307 302 3
0 79 -74 168 -163z"/>
<path d="M5437 5122 c4 -60 2 -85 -10 -108 -19 -37 -8 -65 19 -48 28 17 46 83
40 145 -7 72 -14 89 -37 89 -17 0 -18 -6 -12 -78z"/>
</g>
</svg>
